# AST/ASF file generated using VICON BodyLanguage
# -----------------------------------------------
:version 1.10
:name VICON
:units
  mass 1.0
  length 0.45
  angle deg
:documentation
   .ast/.asf automatically generated from VICON data using
   VICON BodyBuilder and BodyLanguage model FoxedUp or BRILLIANT.MOD
:root
   order TX TY TZ RX RY RZ
   axis XYZ
   position 0 0 0  
   orientation 0 0 0 
:bonedata
  begin
     id 1 
     name lhipjoint
     direction 0.702568 -0.596508 0.388042 
     length 2.56661 
     axis 0 0 0  XYZ
  end
  begin
     id 2 
     name lfemur
     direction 0.34202 -0.939693 0  
     length 6.58374  
     axis 0 0 20  XYZ
    dof rx ry rz
    limits (-160.0 20.0)
           (-70.0 70.0)
           (-60.0 70.0)
  end
  begin
     id 3 
     name ltibia
     direction 0.34202 -0.939693 0   
     length 6.62538   
     axis 0 0 20   XYZ
    dof rx
    limits (-10.0 170.0)
  end
  begin
     id 4 
     name lfoot
     direction 0.10455 -0.287249 0.952133   
     length 2.26699   
     axis -90 7.62852e-016 20   XYZ
    dof rx rz
    limits (-45.0 90.0)
           (-70.0 20.0)
  end
  begin
     id 5 
     name ltoes
     direction 1.53572e-011 -4.22322e-011 1   
     length 1.12949   
     axis -90 7.62852e-016 20   XYZ
    dof rx
    limits (-90.0 20.0)
  end
  begin
     id 6 
     name rhipjoint
     direction -0.728055 -0.574632 0.373811   
     length 2.66432  
     axis 0 0 0  XYZ 
  end
  begin
     id 7 
     name rfemur
     direction -0.34202 -0.939693 0   
     length 6.66732   
     axis 0 0 -20   XYZ
    dof rx ry rz
    limits (-160.0 20.0)
           (-70.0 70.0)
           (-70.0 60.0)
  end
  begin
     id 8 
     name rtibia
     direction -0.34202 -0.939693 0   
     length 6.59288   
     axis 0 0 -20   XYZ
    dof rx
    limits (-10.0 170.0)
 end
 begin
     id 9 
     name rfoot
     direction -0.119193 -0.327479 0.93731   
     length 2.38061  
     axis -90 -7.62852e-016 -20   XYZ
    dof rx rz
    limits (-45.0 90.0)
           (-20.0 70.0)
  end
  begin
     id 10 
     name rtoes
     direction -1.53547e-011 -4.21827e-011 1   
     length 1.17899   
     axis -90 -7.62852e-016 -20   XYZ
    dof rx
    limits (-90.0 20.0)
  end
  begin
     id 11 
     name lowerback
     direction -0.000416114 0.999912 -0.0132284   
     length 2.12109   
     axis 0 0 0   XYZ
    dof rx ry rz
    limits (-20.0 45.0)
           (-30.0 30.0)
           (-30.0 30.0)
  end
  begin
     id 12 
     name upperback
     direction -0.00136371 0.99809 0.0617608   
     length 2.10067   
     axis 0 0 0   XYZ
    dof rx ry rz
    limits (-20.0 45.0)
           (-30.0 30.0)
           (-30.0 30.0)
  end
  begin
     id 13 
     name thorax
     direction -3.43026e-005 0.997776 0.0666515   
     length 2.10618   
     axis 0 0 0   XYZ
    dof rx ry rz
    limits (-20.0 45.0)
           (-30.0 30.0)
           (-30.0 30.0)
  end
  begin
     id 14 
     name lowerneck
     direction 0.0398646 0.998418 0.0396592   
     length 1.83817   
     axis 0 0 0   XYZ
    dof rx ry rz
    limits (-20.0 45.0)
           (-30.0 30.0)
           (-30.0 30.0)
  end
  begin
     id 15 
     name upperneck
     direction -0.0367268 0.961527 -0.272244   
     length 1.81975   
     axis 0 0 0   XYZ
    dof rx ry rz
    limits (-20.0 45.0)
           (-30.0 30.0)
           (-30.0 30.0)
  end
  begin
     id 16
     name head
     direction -0.0182665 0.99536 -0.0944669  
     length 1.86026  
     axis 0 0 0   XYZ
    dof rx ry rz
    limits (-20.0 45.0)
           (-30.0 30.0)
           (-30.0 30.0)
  end
  begin
     id 17 
     name lclavicle
     direction 0.924239 0.361045 0.124212  
     length 3.26878  
     axis 0 0 0   XYZ
    dof ry rz
    limits (-20.0 10.0)
           (0.0 20.0)
  end
  begin
     id 18 
     name lhumerus
     direction 1 -4.48968e-011 -2.56583e-027   
     length 4.58538   
     axis 180 -30 -90   XYZ
    dof rx ry rz
    limits (-60.0 90.0)
           (-90.0 90.0)
           (-90.0 90.0)
  end
  begin
     id 19
     name lradius
     direction 1 -4.4898e-011 -5.50375e-027   
     length 2.68935   
     axis 180 -30 -90   XYZ
    dof rx
    limits (-10.0 170.0)
  end
  begin
     id 20
     name lwrist
     direction 1 -4.48939e-011 -1.48955e-026   
     length 1.34468   
     axis 9.0955e-015 90 90   XYZ
    dof ry
    limits (-180.0 0.0)
 end
  begin
     id 21 
     name lhand
     direction 1 -4.48936e-011 -2.97907e-026   
     length 0.585058   
     axis 1.90115e-014 90 90   XYZ
    dof rx rz
    limits (-90.0 90.0)
           (-45.0 45.0)
  end
  begin
     id 22 
     name lfingers
     direction 1 -4.49082e-011 -5.96235e-026   
     length 0.471689   
     axis 3.80223e-014 90 90   XYZ
    dof rx
    limits (0.0 90.0)
  end
  begin
     id 23
     name lthumb
     direction 0.707107 -6.3489e-011 0.707107   
     length 0.677253   
     axis -90 45 -3.84942e-014   XYZ
    dof rx rz
    limits (-45.0 45.0)
           (-45.0 45.0)
  end
  begin
     id 24 
     name rclavicle
     direction -0.923098 0.371783 0.0983239   
     length 3.19656  
     axis 0 0 0   XYZ 
    dof ry rz
    limits (-10.0 20.0)
           (-20.0 0.0)
  end
  begin
     id 25 
     name rhumerus
     direction -1 -4.48976e-011 -2.5492e-027  
     length 4.4745   
     axis 180 30 90   XYZ
    dof rx ry rz
    limits (-90.0 60.0)
           (-90.0 90.0)
           (-90.0 90.0)
  end
  begin
     id 26 
     name rradius
     direction -1 -4.48941e-011 -4.36555e-027   
     length 2.93896   
     axis 180 30 90   XYZ
    dof rx
    limits (-10.0 170.0)
  end
  begin
     id 27 
     name rwrist
     direction -1 -4.49044e-011 -1.49032e-026   
     length 1.46948   
     axis 9.0955e-015 -90 -90   XYZ
    dof ry
    limits (-180.0 0.0)
  end
  begin
     id 28
     name rhand
     direction -1 -4.48826e-011 -2.97749e-026   
     length 0.405092   
     axis 1.90115e-014 -90 -90   XYZ
    dof rx rz
    limits (-90.0 90.0)
           (-45.0 45.0)
  end
  begin
     id 29
     name rfingers
     direction -1 -4.49209e-011 -5.96602e-026   
     length 0.326596   
     axis 3.80223e-014 -90 -90   XYZ
    dof rx
    limits (0.0 90.0)
  end
  begin
     id 30
     name rthumb
     direction -0.707107 -6.34776e-011 0.707107   
     length 0.468928   
     axis -90 -45 3.84942e-014   XYZ
    dof rx rz
    limits (-45.0 45.0)
           (-45.0 45.0)
  end
:hierarchy
  begin
    root lhipjoint rhipjoint lowerback
    lhipjoint lfemur
    lfemur ltibia
    ltibia lfoot
    lfoot ltoes
    rhipjoint rfemur
    rfemur rtibia
    rtibia rfoot
    rfoot rtoes
    lowerback upperback
    upperback thorax
    thorax lowerneck lclavicle rclavicle
    lowerneck upperneck
    upperneck head
    lclavicle lhumerus
    lhumerus lradius
    lradius lwrist
    lwrist lhand lthumb
    lhand lfingers
    rclavicle rhumerus
    rhumerus rradius
    rradius rwrist
    rwrist rhand rthumb
    rhand rfingers
  end

#!OML:ASF H:\Punching\Project 1\Capture day 1\Session 1\female.ASF
:FULLY-SPECIFIED
:DEGREES
523
root -1.78406 15.2071 9.30685 13.641 2.89993 2.58762
lowerback -2.28897 -1.94797 -0.0307167
upperback -8.86653 -2.52791 1.47918
thorax -7.9231 -1.19059 1.68678
lowerneck -10.7689 -8.22177 -4.38103
upperneck 29.2961 -11.5268 1.73615
head 11.7015 -5.50742 -0.161288
rclavicle -1.61513e-014 6.36111e-015
rhumerus 33.35 -35.2917 -35.4077
rradius 70.1475
rwrist 25.6821
rhand -29.8852 6.14569
rfingers 7.12502
rthumb -3.20656 -23.8099
lclavicle -1.61513e-014 6.36111e-015
lhumerus -71.3472 -16.245 100.04
lradius 111.052
lwrist 6.65811
lhand -22.5175 7.58378
lfingers 7.12502
lthumb 3.90905 37.5277
rfemur -36.2501 -8.66378 11.2209
rtibia 46.739
rfoot -18.7072 -8.87531
rtoes -5.45465
lfemur 5.01453 -11.5967 -7.80332
ltibia 6.36111e-015
lfoot -13.6592 17.3874
ltoes -8.90044
524
root -1.81172 15.2029 9.32093 13.7443 2.64681 2.76298
lowerback -2.36806 -1.84646 -0.159346
upperback -8.87455 -2.39753 1.43665
thorax -7.88583 -1.11898 1.70504
lowerneck -10.7394 -8.14619 -4.27386
upperneck 29.405 -11.4428 1.71626
head 11.726 -5.45889 -0.174338
rclavicle -1.81888e-014 2.38542e-015
rhumerus 33.0092 -34.6004 -34.8833
rradius 70.7765
rwrist 22.7353
rhand -29.3622 6.19591
rfingers 7.12502
rthumb -2.70149 -23.7667
lclavicle -1.81888e-014 2.38542e-015
lhumerus -71.1702 -16.1102 100.183
lradius 111.199
lwrist 6.67585
lhand -22.4901 7.46975
lfingers 7.12502
lthumb 3.93554 37.4131
rfemur -36.5845 -8.53207 11.1296
rtibia 47.1337
rfoot -18.8841 -8.80447
rtoes -5.37165
lfemur 5.0194 -11.2885 -7.89044
ltibia 3.18055e-015
lfoot -13.4893 17.1396
ltoes -9.17949
525
root -1.83686 15.1999 9.33298 13.8345 2.40705 2.94597
lowerback -2.44995 -1.76461 -0.279459
upperback -8.86919 -2.29456 1.37411
thorax -7.83301 -1.06265 1.69855
lowerneck -10.719 -8.05202 -4.1182
upperneck 29.5117 -11.3447 1.70374
head 11.7482 -5.39788 -0.190847
rclavicle 5.46658e-015 -2.38542e-015
rhumerus 32.751 -33.7949 -34.4408
rradius 71.3529
rwrist 20.0177
rhand -28.7651 6.19943
rfingers 7.12502
rthumb -2.12489 -23.7697
lclavicle 5.46658e-015 -2.38542e-015
lhumerus -70.9541 -16.0765 100.274
lradius 111.409
lwrist 6.76951
lhand -22.4688 7.37009
lfingers 7.12502
lthumb 3.95607 37.3131
rfemur -36.8801 -8.42626 11.0247
rtibia 47.4708
rfoot -19.031 -8.74086
rtoes -5.32336
lfemur 5.02491 -10.9973 -7.9925
ltibia -1.90833e-014
lfoot -13.2984 16.8923
ltoes -9.53542
526
root -1.85936 15.1983 9.34316 13.9017 2.19566 3.11129
lowerback -2.52086 -1.70487 -0.363113
upperback -8.85235 -2.2212 1.29819
thorax -7.77523 -1.02429 1.65927
lowerneck -10.7029 -7.94195 -3.92624
upperneck 29.619 -11.2397 1.71597
head 11.7707 -5.3267 -0.203508
rclavicle 9.59136e-015 -8.74653e-015
rhumerus 32.5573 -32.9092 -34.0827
rradius 71.8409
rwrist 17.7161
rhand -28.1473 6.2049
rfingers 7.12502
rthumb -1.52818 -23.7694
lclavicle 9.59136e-015 -8.74653e-015
lhumerus -70.7101 -16.1319 100.304
lradius 111.661
lwrist 6.87381
lhand -22.4353 7.31082
lfingers 7.12502
lthumb 3.98841 37.2532
rfemur -37.108 -8.34278 10.9311
rtibia 47.7264
rfoot -19.1457 -8.68651
rtoes -5.29661
lfemur 5.03732 -10.7331 -8.08126
ltibia 6.36111e-015
lfoot -13.0912 16.6482
ltoes -9.94771
527
root -1.87923 15.1981 9.35128 13.9416 2.0187 3.24037
lowerback -2.57444 -1.66373 -0.39166
upperback -8.82052 -2.17211 1.21336
thorax -7.71278 -1.00233 1.58136
lowerneck -10.6956 -7.82127 -3.71196
upperneck 29.7218 -11.136 1.76688
head 11.7948 -5.24879 -0.206357
rclavicle 1.23743e-014 1.59028e-015
rhumerus 32.4265 -31.9995 -33.8342
rradius 72.2222
rwrist 16.0096
rhand -27.6268 6.19521
rfingers 7.12502
rthumb -1.02548 -23.7821
lclavicle 1.23743e-014 1.59028e-015
lhumerus -70.432 -16.2762 100.27
lradius 111.927
lwrist 6.94336
lhand -22.387 7.29921
lfingers 7.12502
lthumb 4.03506 37.2407
rfemur -37.2594 -8.26996 10.8669
rtibia 47.8939
rfoot -19.2259 -8.64728
rtoes -5.28756
lfemur 5.0589 -10.4977 -8.13458
ltibia 3.18055e-014
lfoot -12.8712 16.4029
ltoes -10.3986
528
root -1.8963 15.1996 9.35729 13.9481 1.8855 3.30232
lowerback -2.60354 -1.63712 -0.332765
upperback -8.77265 -2.14072 1.12881
thorax -7.64953 -0.995251 1.4563
lowerneck -10.6991 -7.69473 -3.48508
upperneck 29.8229 -11.039 1.85813
head 11.8229 -5.16726 -0.198133
rclavicle 8.39865e-015 -4.77083e-015
rhumerus 32.3333 -31.0969 -33.6876
rradius 72.489
rwrist 15.0226
rhand -27.3461 6.16328
rfingers 7.12502
rthumb -0.754355 -23.8151
lclavicle 8.39865e-015 -4.77083e-015
lhumerus -70.1249 -16.4971 100.171
lradius 112.198
lwrist 6.94969
lhand -22.2993 7.34592
lfingers 7.12502
lthumb 4.11973 37.2858
rfemur -37.3227 -8.19834 10.8639
rtibia 47.9717
rfoot -19.2767 -8.62348
rtoes -5.29683
lfemur 5.09473 -10.2935 -8.11793
ltibia 3.18055e-015
lfoot -12.6377 16.1563
ltoes -10.8894
529
root -1.91077 15.2022 9.36115 13.9244 1.78533 3.3262
lowerback -2.60124 -1.61424 -0.220397
upperback -8.71371 -2.11376 1.03593
thorax -7.59444 -0.994215 1.29381
lowerneck -10.7059 -7.57279 -3.26815
upperneck 29.9166 -10.9615 1.99874
head 11.8539 -5.08928 -0.173184
rclavicle -6.11263e-015 7.15625e-015
rhumerus 32.2635 -30.2492 -33.6492
rradius 72.6452
rwrist 14.8182
rhand -27.2886 6.11804
rfingers 7.12502
rthumb -0.698787 -23.8606
lclavicle -6.11263e-015 7.15625e-015
lhumerus -69.8009 -16.8006 100.026
lradius 112.46
lwrist 6.89553
lhand -22.1706 7.43408
lfingers 7.12502
lthumb 4.24404 37.3715
rfemur -37.3141 -8.13051 10.889
rtibia 47.9778
rfoot -19.3023 -8.60475
rtoes -5.30263
lfemur 5.14427 -10.1168 -8.06413
ltibia 2.22639e-014
lfoot -12.3991 15.905
ltoes -11.3766
530
root -1.9228 15.2055 9.36273 13.872 1.7172 3.31632
lowerback -2.56681 -1.59085 -0.0646122
upperback -8.64273 -2.08558 0.936019
thorax -7.54659 -0.995575 1.10062
lowerneck -10.7232 -7.46035 -3.0666
upperneck 30.0012 -10.9067 2.18128
head 11.8885 -5.01767 -0.133996
rclavicle 1.26725e-014 -7.95139e-015
rhumerus 32.2104 -29.4853 -33.7245
rradius 72.7126
rwrist 15.3606
rhand -27.4297 6.07686
rfingers 7.12502
rthumb -0.835132 -23.9013
lclavicle 1.26725e-014 -7.95139e-015
lhumerus -69.4551 -17.1821 99.844
lradius 112.701
lwrist 6.80549
lhand -22.0026 7.54017
lfingers 7.12502
lthumb 4.40627 37.4743
rfemur -37.2446 -8.06677 10.9387
rtibia 47.9283
rfoot -19.3068 -8.59366
rtoes -5.30969
lfemur 5.20631 -9.96767 -7.97718
ltibia -3.18055e-015
lfoot -12.1596 15.6466
ltoes -11.821
531
root -1.93261 15.2091 9.36204 13.7984 1.67215 3.29953
lowerback -2.50116 -1.56296 0.0987838
upperback -8.56637 -2.05154 0.826524
thorax -7.51163 -0.994567 0.893913
lowerneck -10.7413 -7.36099 -2.8925
upperneck 30.0726 -10.875 2.39915
head 11.9234 -4.95498 -0.0804259
rclavicle 8.34896e-015 1.59028e-015
rhumerus 32.1322 -28.7974 -33.8541
rradius 72.7277
rwrist 16.4826
rhand -27.7261 5.97822
rfingers 7.12502
rthumb -1.12135 -23.9986
lclavicle 8.34896e-015 1.59028e-015
lhumerus -69.0946 -17.6285 99.64
lradius 112.92
lwrist 6.70209
lhand -21.7972 7.66493
lfingers 7.12502
lthumb 4.60461 37.5949
rfemur -37.1372 -8.01643 10.9865
rtibia 47.8473
rfoot -19.2955 -8.58359
rtoes -5.32802
lfemur 5.27446 -9.8426 -7.88757
ltibia 2.54444e-014
lfoot -11.9226 15.3832
ltoes -12.217
